<?xml version="1.0" encoding="utf-8"?>
<!-- Generator: Adobe Adobe Illustrator 24.2.0, SVG Export Plug-In . SVG Version: 6.00 Build 0)  -->
<svg version="1.1" xmlns="http://www.w3.org/2000/svg" xmlns:xlink="http://www.w3.org/1999/xlink" x="0px" y="0px"
	 viewBox="0 0 121.4 263.43" style="enable-background:new 0 0 121.4 263.43;" xml:space="preserve">
<style type="text/css">
	.st0{stroke:#000000;stroke-miterlimit:10;}
	.st1{fill:#818181;}
	.st2{fill:#F0F0F0;}
	.st3{fill:#CACACA;}
</style>
<g id="Vector_layer_13_">
</g>
<g id="Vector_layer_12_">
</g>
<g id="Vector_layer_11_">
	<path class="st2" d="M83.98,175.2c0.01,0.36,0,0.72,0,1.09c0,0.75-0.02,1.5-0.04,2.25c-0.03,1.32-0.14,2.64-0.26,3.96
		c-0.06,0.7-0.16,1.4-0.25,2.1c-0.09,0.7-0.2,1.39-0.32,2.07c-0.01,0.07-0.02,0.14-0.04,0.22c-0.62,1.74-1.25,3.48-1.86,5.23
		c-0.38,1.08-0.77,2.16-1.16,3.24c-0.42,1.18-0.82,2.37-1.26,3.54c-0.62,1.7-1.2,3.41-1.82,5.1c-0.32,0.87-0.62,1.74-0.93,2.61
		c-0.32,0.89-0.64,1.77-0.95,2.66c-0.59,1.7-1.22,3.38-1.81,5.07c-0.22,0.64-0.45,1.27-0.68,1.91c-0.04,0.08-0.08,0.16-0.12,0.23
		c-0.78,1.3-1.73,2.48-2.8,3.55c-0.85,0.86-1.8,1.63-2.82,2.29c-1.11,0.72-2.28,1.34-3.54,1.75c-0.87,0.28-1.76,0.48-2.67,0.52
		c-0.01,0-0.02,0-0.03,0c-0.03,0-0.06,0-0.09,0s-0.05,0-0.08,0c-0.01,0-0.02,0-0.04,0c-0.91-0.04-1.8-0.24-2.67-0.52
		c-1.26-0.41-2.43-1.03-3.54-1.75c-1.01-0.66-1.96-1.43-2.82-2.29c-1.07-1.07-2.02-2.25-2.8-3.55c-0.04-0.07-0.09-0.15-0.12-0.23
		c-0.23-0.63-0.46-1.27-0.68-1.91c-0.59-1.7-1.22-3.38-1.81-5.07c-0.31-0.89-0.62-1.77-0.95-2.66c-0.31-0.87-0.61-1.74-0.93-2.61
		c-0.62-1.69-1.19-3.4-1.82-5.1c-0.43-1.17-0.84-2.36-1.26-3.54c-0.38-1.08-0.78-2.16-1.16-3.24c-0.6-1.72-1.23-3.45-1.84-5.17
		c-0.14-0.78-0.26-1.57-0.37-2.35c-0.89-6.23-0.54-12.56,0.03-18.8c0.83-9.33,1.78-18.65,2.73-27.97
		c1.98-20.21,3.27-40.49,4.63-60.75c0.5-8.94,1.49-17.83,2.64-26.7c0-0.01,0-0.02,0-0.04c0-0.11,0.02-0.22,0.03-0.33
		c0-0.05,0-0.09,0.01-0.14c0.01-0.23,0.06-0.46,0.12-0.69c0-0.02,0-0.03,0.01-0.05c0-0.02,0-0.04,0-0.07
		c0.01-0.01,0.02-0.03,0.04-0.04c0.01-0.04,0.02-0.07,0.03-0.1c0.05-0.15,0.1-0.29,0.15-0.44c0,0,0,0,0-0.01
		c0.07-0.36,0.16-0.7,0.29-1.04c0.24-0.64,0.57-1.23,0.94-1.8c0.87-1.34,2.02-2.47,3.25-3.47c1.01-0.82,2.13-1.53,3.3-2.09
		c1.12-0.54,2.31-0.97,3.55-1.14c0.38-0.05,0.75-0.06,1.12-0.07c0.38,0,0.75,0.01,1.12,0.07c1.24,0.17,2.43,0.6,3.55,1.14
		c1.18,0.56,2.29,1.27,3.3,2.09c1.23,1,2.38,2.13,3.25,3.47c0.37,0.57,0.7,1.16,0.94,1.8c0.13,0.34,0.22,0.68,0.29,1.04
		c0,0,0,0,0,0.01c0.05,0.15,0.11,0.29,0.15,0.44c0.01,0.04,0.02,0.07,0.03,0.1c0.01,0.01,0.02,0.02,0.03,0.04
		c0,0.02,0,0.05,0.01,0.07c0,0.01,0,0.03,0,0.04c0.06,0.23,0.11,0.46,0.12,0.7c0,0.05,0,0.09,0,0.14c0.01,0.11,0.02,0.22,0.03,0.33
		c0.01,0.11,0.02,0.22,0.02,0.34c0.1,0.8,0.21,1.61,0.31,2.41c0.36,2.78,0.73,5.56,1.02,8.34c0.55,5.21,0.96,10.43,1.3,15.66
		c0.18,2.73,0.35,5.46,0.54,8.18c0.09,1.35,0.18,2.7,0.27,4.05c0.04,0.62,0.09,1.24,0.13,1.86c0.05,0.71,0.09,1.42,0.15,2.13
		c0.06,0.7,0.09,1.41,0.15,2.11c0.06,0.76,0.12,1.53,0.17,2.29c0.09,1.34,0.19,2.67,0.29,4c0.11,1.38,0.2,2.76,0.3,4.14
		c0.1,1.33,0.2,2.66,0.29,3.98c0.18,2.63,0.39,5.26,0.57,7.89c0.09,1.3,0.2,2.6,0.3,3.9c0.1,1.29,0.23,2.58,0.33,3.87
		c0.22,2.82,0.54,5.62,0.77,8.43c0.11,1.3,0.25,2.6,0.38,3.89s0.26,2.6,0.39,3.89c0.27,2.68,0.56,5.36,0.83,8.04
		c0.27,2.71,0.52,5.43,0.78,8.15c0.25,2.63,0.5,5.25,0.73,7.88c0.12,1.38,0.21,2.76,0.33,4.14c0.05,0.67,0.09,1.34,0.13,2.02
		c0.04,0.75,0.08,1.51,0.09,2.27C83.96,174.55,83.97,174.87,83.98,175.2z"/>
	<g>
		<path class="st0" d="M85.58,174.95c-0.04-1.46-0.11-2.92-0.19-4.38c-0.16-2.74-0.43-5.48-0.68-8.21c-0.24-2.6-0.48-5.21-0.74-7.81
			c-0.14-1.38-0.27-2.77-0.4-4.15c-0.13-1.41-0.29-2.83-0.43-4.24c-0.25-2.57-0.53-5.14-0.79-7.71c-0.55-5.48-1.04-10.96-1.51-16.45
			c-0.45-5.27-0.77-10.55-1.17-15.82c-0.41-5.45-0.79-10.9-1.18-16.35c-0.18-2.61-0.36-5.21-0.52-7.82
			c-0.08-1.44-0.19-2.88-0.28-4.31c-0.09-1.4-0.17-2.81-0.29-4.21c-0.12-1.4-0.2-2.8-0.32-4.21c-0.05-0.67-0.11-1.34-0.16-2.02
			c-0.05-0.69-0.13-1.37-0.19-2.06c-0.1-1.23-0.23-2.45-0.36-3.67c-0.15-1.34-0.3-2.68-0.46-4.02c-0.3-2.4-0.64-4.8-0.93-7.21
			c-0.02-0.12-0.04-0.23-0.06-0.35c0,0,0,0,0,0c0,0,0,0,0,0c0-0.02-0.01-0.05-0.01-0.05c0,0-0.51-2.57-0.54-2.54c0,0,0,0,0,0
			c-0.02-0.08-0.03-0.15-0.05-0.23c-0.15-0.45-0.34-0.88-0.55-1.3c-0.54-1.07-1.27-2.05-2.08-2.92c-0.9-0.99-1.92-1.89-3.01-2.65
			c-1.08-0.76-2.23-1.44-3.45-1.95c-1.21-0.52-2.49-0.9-3.81-1.02c-0.15-0.02-0.31-0.03-0.46-0.03c-0.12,0-0.26-0.01-0.39-0.01
			c-0.13,0-0.27,0-0.39,0.01c-0.15,0-0.31,0.01-0.46,0.03c-1.32,0.12-2.6,0.5-3.81,1.02c-1.22,0.52-2.37,1.19-3.45,1.95
			c-1.09,0.77-2.11,1.66-3.01,2.65c-0.8,0.88-1.54,1.86-2.08,2.92c-0.21,0.42-0.4,0.85-0.55,1.3c-0.03,0.11-0.05,0.22-0.08,0.33
			c-0.09,0.36-0.16,0.73-0.24,1.09c0,0.01,0.01,0.02,0.01,0.03c-0.09,0.43-0.19,0.87-0.27,1.3c0,0,0,0.01,0,0
			c0,0.02-0.01,0.04-0.01,0.06c0,0,0-0.01,0-0.01c-0.04,0.24-0.09,0.47-0.13,0.71c-1.38,10.41-2.34,20.87-2.92,31.35
			c-1.55,24.22-3.41,48.42-6,72.55c-1.21,10.62-1.34,27.76-1.32,28.15c0.02,0.31,0.03,0.62,0.04,0.93c0.1,0.71,0.2,1.43,0.3,2.14
			c0.03,0.2,0.06,0.41,0.08,0.61c0.02,0.09,0.03,0.19,0.05,0.29c0.01,0.07,0.02,0.13,0.03,0.2c0.17,0.49,0.34,0.98,0.52,1.46
			c0.41,1.16,0.83,2.3,1.23,3.46c1.6,4.57,3.27,9.12,4.88,13.69c0.84,2.38,1.7,4.75,2.54,7.12c0.43,1.22,0.86,2.45,1.3,3.66
			c0.03,0.09,0.06,0.17,0.09,0.26c0.04,0.3,0.23,0.57,0.38,0.82c0.21,0.34,0.42,0.68,0.65,1c0.8,1.17,1.75,2.25,2.79,3.21
			c0.93,0.86,1.93,1.65,3,2.32c1.87,1.16,3.96,2.05,6.16,2.26c0.12,0.04,0.24,0.04,0.37,0.05c0.11,0,0.22,0,0.33-0.01
			c0.11,0,0.22,0.01,0.33,0.01c0.13-0.01,0.25-0.02,0.37-0.05c2.2-0.22,4.29-1.1,6.16-2.26c1.08-0.67,2.07-1.46,3-2.32
			c1.04-0.96,1.99-2.05,2.79-3.21c0.23-0.33,0.44-0.66,0.65-1c0.15-0.25,0.34-0.52,0.38-0.82c0.03-0.09,0.06-0.17,0.09-0.26
			c0.44-1.21,0.87-2.44,1.3-3.66c0.84-2.38,1.7-4.74,2.54-7.12c1.61-4.57,3.27-9.12,4.88-13.69c0.41-1.16,0.82-2.3,1.23-3.46
			c0.18-0.49,0.35-0.98,0.52-1.46c0.01-0.07,0.02-0.13,0.03-0.2c0.02-0.1,0.03-0.2,0.05-0.29c0.02-0.2,0.05-0.41,0.08-0.61
			c0.1-0.71,0.2-1.43,0.3-2.14c0.01-0.31,0.02-0.62,0.04-0.93c0.01-0.19,0.02-0.38,0.03-0.56c0.04-0.74,0.09-1.48,0.15-2.22
			c0-0.04,0.01-0.08,0.02-0.11c0.01-0.21,0.02-0.42,0.04-0.62c0.02-0.29,0.02-0.59,0.03-0.88c0.01-0.38,0.03-0.77,0.03-1.15
			C85.59,176.4,85.6,175.68,85.58,174.95z M80.06,195.35c-0.42,1.18-0.82,2.37-1.26,3.54c-0.62,1.7-1.2,3.41-1.82,5.1
			c-0.32,0.87-0.62,1.74-0.93,2.61c-0.32,0.89-0.64,1.77-0.95,2.66c-0.59,1.7-1.22,3.38-1.81,5.07c-0.22,0.65-0.46,1.29-0.69,1.93
			c-0.04,0.07-0.07,0.14-0.11,0.2c-0.78,1.3-1.73,2.48-2.8,3.55c-0.85,0.86-1.8,1.63-2.82,2.29c-1.11,0.72-2.28,1.34-3.54,1.75
			c-0.87,0.28-1.76,0.48-2.67,0.52c-0.01,0-0.02,0-0.03,0c-0.03,0-0.06,0-0.09,0c-0.03,0-0.06,0-0.08,0c-0.01,0-0.02,0-0.03,0
			c-0.91-0.04-1.8-0.24-2.67-0.52c-1.26-0.41-2.43-1.03-3.54-1.75c-1.01-0.66-1.96-1.43-2.82-2.29c-1.07-1.07-2.02-2.25-2.8-3.55
			c-0.04-0.06-0.08-0.13-0.11-0.2c-0.23-0.64-0.47-1.29-0.69-1.94c-0.59-1.7-1.22-3.38-1.81-5.07c-0.31-0.89-0.62-1.77-0.95-2.66
			c-0.31-0.87-0.61-1.74-0.93-2.61c-0.62-1.69-1.19-3.4-1.82-5.1c-0.43-1.17-0.84-2.36-1.26-3.54c-0.38-1.08-0.78-2.16-1.16-3.24
			c-0.59-1.7-1.21-3.39-1.81-5.09c-0.14-0.81-0.29-1.61-0.4-2.42c-0.89-6.23-0.54-12.56,0.03-18.8c0.83-9.33,1.78-18.65,2.73-27.97
			c1.98-20.21,3.27-40.49,4.63-60.75c0.5-8.94,1.49-17.83,2.65-26.7c0-0.01,0-0.03,0-0.04c0-0.11,0.02-0.22,0.03-0.33
			c0-0.05,0-0.09,0.01-0.14c0.01-0.23,0.06-0.47,0.12-0.69c0-0.02,0-0.03,0.01-0.05c0-0.02,0-0.05,0-0.07
			c0.01-0.01,0.02-0.03,0.03-0.04c0.01-0.03,0.02-0.07,0.03-0.1c0.05-0.15,0.1-0.3,0.15-0.44c0,0,0-0.01,0-0.01
			c0.07-0.36,0.16-0.7,0.29-1.04c0.24-0.64,0.57-1.23,0.94-1.8c0.87-1.34,2.02-2.47,3.25-3.47c1.01-0.82,2.13-1.53,3.3-2.09
			c1.12-0.54,2.31-0.97,3.55-1.14c0.38-0.05,0.75-0.06,1.12-0.07c0.38,0,0.75,0.01,1.12,0.07c1.24,0.17,2.43,0.6,3.55,1.14
			c1.18,0.56,2.29,1.27,3.3,2.09c1.23,1,2.38,2.13,3.25,3.47c0.37,0.57,0.7,1.16,0.94,1.8c0.13,0.34,0.22,0.68,0.29,1.04
			c0,0,0,0.01,0,0.01c0.05,0.15,0.11,0.29,0.15,0.44c0.01,0.03,0.02,0.07,0.03,0.1c0.01,0.01,0.02,0.03,0.03,0.04
			c0,0.02,0.01,0.05,0.01,0.07c0,0.01,0,0.02,0,0.04c0.06,0.23,0.11,0.46,0.12,0.7c0,0.05,0,0.09,0,0.14
			c0.01,0.11,0.02,0.22,0.03,0.33c0.01,0.11,0.02,0.22,0.02,0.34c0.1,0.8,0.21,1.61,0.31,2.41c0.36,2.78,0.73,5.56,1.02,8.34
			c0.55,5.21,0.96,10.43,1.3,15.66c0.18,2.73,0.35,5.46,0.54,8.18c0.09,1.35,0.18,2.7,0.27,4.05c0.04,0.62,0.09,1.24,0.13,1.86
			c0.05,0.71,0.09,1.42,0.15,2.13c0.06,0.7,0.09,1.41,0.15,2.11c0.06,0.76,0.12,1.53,0.17,2.29c0.09,1.34,0.19,2.67,0.29,4
			c0.11,1.38,0.2,2.76,0.3,4.14c0.1,1.33,0.2,2.66,0.29,3.98c0.18,2.63,0.39,5.26,0.57,7.89c0.09,1.3,0.2,2.6,0.3,3.9
			c0.1,1.29,0.23,2.58,0.33,3.87c0.22,2.82,0.54,5.62,0.77,8.43c0.11,1.3,0.25,2.6,0.38,3.89s0.26,2.6,0.39,3.89
			c0.27,2.68,0.56,5.36,0.83,8.04c0.27,2.71,0.52,5.43,0.78,8.15c0.25,2.63,0.5,5.25,0.73,7.88c0.12,1.38,0.21,2.76,0.33,4.14
			c0.05,0.67,0.09,1.34,0.13,2.02c0.04,0.75,0.08,1.51,0.09,2.27c0,0.32,0.02,0.65,0.02,0.98c0.01,0.36,0,0.72,0,1.09
			c0,0.75-0.02,1.5-0.04,2.25c-0.03,1.32-0.14,2.64-0.26,3.96c-0.06,0.7-0.16,1.4-0.25,2.1c-0.09,0.7-0.2,1.39-0.32,2.07
			c-0.01,0.07-0.03,0.14-0.04,0.2c-0.62,1.75-1.25,3.49-1.87,5.24C80.83,193.2,80.44,194.27,80.06,195.35z"/>
	</g>
</g>
<g id="Vector_layer_10_">
</g>
<g id="Vector_layer_9_">
</g>
<g id="Vector_layer_8_">
</g>
<g id="Vector_layer_7_">
</g>
</svg>
