<?xml version="1.0" encoding="utf-8"?>
<!-- Generator: Adobe Adobe Illustrator 24.2.0, SVG Export Plug-In . SVG Version: 6.00 Build 0)  -->
<svg version="1.1" xmlns="http://www.w3.org/2000/svg" xmlns:xlink="http://www.w3.org/1999/xlink" x="0px" y="0px"
	 viewBox="0 0 112 126" style="enable-background:new 0 0 112 126;" xml:space="preserve">
<style type="text/css">
	.st0{stroke:#000000;stroke-miterlimit:10;}
	.st1{fill:#818181;}
	.st2{fill:#F0F0F0;}
	.st3{fill:#CACACA;}
</style>
<g id="Vector_layer_13_">
	<path class="st0" d="M17.08,98.63c-0.38,0-0.76,0-1.14,0c-0.75,0.02-1.1-1.03-0.48-1.45c8.91-15.83,18.19-31.5,27.21-47.28
		c3.76-6.51,7.51-13.02,11.27-19.52c0.76-1.04,1.92-4.72,3.18-2.19c13.13,22.77,26.34,45.51,39.41,68.31
		c1.54,3.02-2.88,1.94-4.5,2.12c-5.57,0-11.14,0-16.71,0C55.91,98.63,36.5,98.63,17.08,98.63z M26.7,97.03
		c22.77,0.01,45.53-0.02,68.3,0.01C82.09,74.59,69.1,52.18,56.17,29.74C43.23,52.17,30.28,74.58,17.34,97.01
		C20.46,97.06,23.58,97.01,26.7,97.03z"/>
	<path class="st1" d="M95,97.03c-22.77-0.02-45.53,0-68.3-0.01c-3.12-0.02-6.24,0.03-9.36-0.02c12.95-22.43,25.89-44.84,38.83-67.27
		C69.1,52.18,82.09,74.59,95,97.03z"/>
</g>
<g id="Vector_layer_12_">
</g>
<g id="Vector_layer_11_">
</g>
<g id="Vector_layer_10_">
</g>
<g id="Vector_layer_9_">
</g>
<g id="Vector_layer_8_">
</g>
<g id="Vector_layer_7_">
</g>
</svg>
