<?xml version="1.0" encoding="utf-8"?>
<!-- Generator: Adobe Adobe Illustrator 24.2.0, SVG Export Plug-In . SVG Version: 6.00 Build 0)  -->
<svg version="1.1" xmlns="http://www.w3.org/2000/svg" xmlns:xlink="http://www.w3.org/1999/xlink" x="0px" y="0px"
	 viewBox="0 0 148 206.38" style="enable-background:new 0 0 148 206.38;" xml:space="preserve">
<style type="text/css">
	.st0{stroke:#000000;stroke-miterlimit:10;}
	.st1{fill:#818181;}
	.st2{fill:#F0F0F0;}
	.st3{fill:#CACACA;}
</style>
<g id="Vector_layer_13_">
</g>
<g id="Vector_layer_12_">
	<path class="st2" d="M82.06,28.35c4.53,1.53,7.93,5.79,8.5,10.51c-0.03,0.13-0.04,0.28-0.02,0.45c0.2,40.76,0.4,81.51,0.59,122.26
		c0,0.02-0.01,0.03-0.01,0.05c0.01,1.82,0.02,3.63,0.03,5.46c0,0.04,0,0.08,0.01,0.12c-1.34,12.47-18.18,15.7-24.08,4.33
		c-0.62-1.24-1.65-2.07-1.86-3.42c0.01-0.04-0.48-1.49-0.48-1.54c0-1.67,1.1-2.33,1.09-4l-0.22,0l0,0c0-0.61-0.51-1.54-0.51-2.16
		c-0.01-1.95,0.71-3.59,0.7-5.54c0-0.02,0-0.04,0-0.06c0-0.01,0-0.02,0-0.03c-0.04-8.69-0.08-17.36-0.12-26.05
		c-0.15-30.09-0.29-60.17-0.44-90.26c0.11-0.8,0.3-1.58,0.57-2.36C67.95,29.65,75.61,25.95,82.06,28.35z"/>
	<g>
		<path class="st0" d="M63.29,41.05c0,0.02-0.01,0.03-0.01,0.05c0.28,40.63,0.56,78.13,0.84,118.76l0,0l0,0c0,0.04,0,0.07,0,0.11
			c0,0.01,0,0.03,0,0.05c0.02,0.86,0.1,5.38,0.16,6.56c0.3,5.07,4.47,10.7,9.89,12.35c1.4,0.48,2.83,0.69,4.24,0.69
			c7.21-0.05,14.16-6.14,14.22-13.64c0.01-0.96,0.07-2.55-0.05-3.72c-0.06-9.1-0.12-18.21-0.19-27.31
			c-0.22-31.78-0.43-63.56-0.65-95.34c0,0,0,0,0-0.01c-0.08-2.23-1.6-6.01-2.29-6.76C81.42,20.96,63.01,27.02,63.29,41.05z
			 M90.04,39.63L90.04,39.63c0,0.05,0,0.1,0.01,0.15c0,0.06,0.01,0.12,0.02,0.19c0,0,0,0.01,0,0.01
			c0.28,41.01,0.77,82.17,1.05,123.17c0,0,0-0.01,0.01-0.02c0,0.51,0.01,1,0.01,1.31c0,0.84-0.06,1.68-0.06,1.68c0,0,0,0,0,0
			c0,0,0,0,0,0c0,0,0,0.01,0,0.01c-0.94,12.77-18,16.33-23.96,4.94c-0.73-1.45-1.26-3.34-1.33-4.61c-0.01-0.1-0.07-4.27-0.09-5.52
			c0,0,0,0,0,0l-0.01-6.43c0,0-0.12-17.56-0.18-26.35c-0.2-29.84-0.43-56.82-0.63-86.62c0.18-0.56,0.12-3.25,0.68-4.9
			c2.1-6.46,9.7-10.2,16.11-7.86C86.66,30.42,89.81,35.8,90.04,39.63z"/>
	</g>
</g>
<g id="Vector_layer_11_">
</g>
<g id="Vector_layer_10_">
</g>
<g id="Vector_layer_9_">
</g>
<g id="Vector_layer_8_">
</g>
<g id="Vector_layer_7_">
</g>
</svg>
