<?xml version="1.0" encoding="utf-8"?>
<!-- Generator: Adobe Adobe Illustrator 24.2.0, SVG Export Plug-In . SVG Version: 6.00 Build 0)  -->
<svg version="1.1" xmlns="http://www.w3.org/2000/svg" xmlns:xlink="http://www.w3.org/1999/xlink" x="0px" y="0px"
	 viewBox="0 0 78.93 52.97" style="enable-background:new 0 0 78.93 52.97;" xml:space="preserve">
<style type="text/css">
	.st0{stroke:#000000;stroke-miterlimit:10;}
	.st1{fill:#818181;}
	.st2{fill:#F0F0F0;}
	.st3{fill:#CACACA;}
</style>
<g id="Vector_layer_13_">
</g>
<g id="Vector_layer_12_">
</g>
<g id="Vector_layer_11_">
</g>
<g id="Vector_layer_10_">
	<path class="st3" d="M52.76,24.65c1.8,11.24-12.18,18.27-20.14,10.15c-6.07-5.75-3.57-16.86,4.36-19.47
		C43.72,12.69,51.83,17.46,52.76,24.65z"/>
	<path class="st0" d="M34.49,38.22c-9.39-5.03-9.03-19.27,0.6-23.83c6.71-3.51,15.69-0.1,18.41,6.96
		C58.34,32.99,45.47,44.41,34.49,38.22z M36.98,15.33c-7.93,2.61-10.43,13.72-4.36,19.47c7.97,8.12,21.94,1.09,20.14-10.15
		C51.83,17.45,43.73,12.69,36.98,15.33z"/>
</g>
<g id="Vector_layer_9_">
</g>
<g id="Vector_layer_8_">
</g>
<g id="Vector_layer_7_">
</g>
</svg>
