<?xml version="1.0" encoding="utf-8"?>
<!-- Generator: Adobe Adobe Illustrator 24.2.0, SVG Export Plug-In . SVG Version: 6.00 Build 0)  -->
<svg version="1.1" xmlns="http://www.w3.org/2000/svg" xmlns:xlink="http://www.w3.org/1999/xlink" x="0px" y="0px"
	 viewBox="0 0 76 55.88" style="enable-background:new 0 0 76 55.88;" xml:space="preserve">
<style type="text/css">
	.st0{stroke:#000000;stroke-miterlimit:10;}
	.st1{fill:#818181;}
	.st2{fill:#F0F0F0;}
	.st3{fill:#CACACA;}
</style>
<g id="Vector_layer_13_">
</g>
<g id="Vector_layer_12_">
</g>
<g id="Vector_layer_11_">
</g>
<g id="Vector_layer_10_">
</g>
<g id="Vector_layer_9_">
</g>
<g id="Vector_layer_8_">
	<path class="st3" d="M36.17,17.39c9.52-1.77,17.14,8.82,12.43,17.29c-3.66,7.32-14.66,8.39-19.63,1.88
		C23.2,29.84,27.41,18.65,36.17,17.39z"/>
	<path class="st0" d="M36.54,42.44c-8.67-0.78-14.4-10.75-10.78-18.65c5.32-12.31,23.49-10.07,25.67,3.16
		C53.04,35.46,45.12,43.7,36.54,42.44z M36.16,17.39c-8.76,1.26-12.97,12.45-7.21,19.17c4.98,6.51,15.98,5.44,19.63-1.88
		C53.3,26.21,45.69,15.62,36.16,17.39z"/>
</g>
<g id="Vector_layer_7_">
</g>
</svg>
