<?xml version="1.0" encoding="utf-8"?>
<!-- Generator: Adobe Adobe Illustrator 24.2.0, SVG Export Plug-In . SVG Version: 6.00 Build 0)  -->
<svg version="1.1" xmlns="http://www.w3.org/2000/svg" xmlns:xlink="http://www.w3.org/1999/xlink" x="0px" y="0px"
	 viewBox="0 0 135 206.38" style="enable-background:new 0 0 135 206.38;" xml:space="preserve">
<style type="text/css">
	.st0{stroke:#000000;stroke-miterlimit:10;}
	.st1{fill:#818181;}
	.st2{fill:#F0F0F0;stroke:#000000;stroke-width:3;stroke-miterlimit:10;}
	.st3{fill:#F0F0F0;}
	.st4{fill:#CACACA;}
</style>
<g id="Vector_layer_13_">
</g>
<g id="Vector_layer_12_">
</g>
<g id="Vector_layer_11_">
</g>
<g id="Vector_layer_10_">
</g>
<g id="Vector_layer_9_">
	<path class="st4" d="M78.31,101.49c1.67,10.41-11.27,16.92-18.65,9.4c-5.62-5.32-3.31-15.61,4.04-18.03
		C69.95,90.42,77.46,94.83,78.31,101.49z"/>
	<path class="st0" d="M61.4,114.06c-8.7-4.66-8.36-17.85,0.55-22.06c6.21-3.25,14.53-0.09,17.05,6.44
		C83.48,109.22,71.57,119.79,61.4,114.06z M63.7,92.86c-7.34,2.42-9.66,12.7-4.04,18.03c7.38,7.52,20.32,1.01,18.65-9.4
		C77.46,94.83,69.95,90.42,63.7,92.86z"/>
</g>
<g id="Vector_layer_8_">
</g>
<g id="Vector_layer_7_">
</g>
</svg>
