<?xml version="1.0" encoding="utf-8"?>
<!-- Generator: Adobe Adobe Illustrator 24.2.0, SVG Export Plug-In . SVG Version: 6.00 Build 0)  -->
<svg version="1.1" xmlns="http://www.w3.org/2000/svg" xmlns:xlink="http://www.w3.org/1999/xlink" x="0px" y="0px"
	 viewBox="0 0 135 206.38" style="enable-background:new 0 0 135 206.38;" xml:space="preserve">
<style type="text/css">
	.st0{stroke:#000000;stroke-miterlimit:10;}
	.st1{fill:#818181;}
	.st2{fill:#F0F0F0;stroke:#000000;stroke-width:3;stroke-miterlimit:10;}
	.st3{fill:#F0F0F0;}
	.st4{fill:#CACACA;}
</style>
<g id="Vector_layer_13_">
</g>
<g id="Vector_layer_12_">
</g>
<g id="Vector_layer_11_">
</g>
<g id="Vector_layer_10_">
</g>
<g id="Vector_layer_9_">
</g>
<g id="Vector_layer_8_">
</g>
<g id="Vector_layer_7_">
	<g>
		<path class="st0" d="M89.97,97.19c0.06-0.4-0.23-0.75-0.42-1.07c-0.43-0.71-0.88-1.41-1.32-2.12c-0.75-1.23-1.5-2.46-2.27-3.67
			c-0.77-1.22-1.62-2.39-2.48-3.56c-0.87-1.2-1.72-2.4-2.59-3.6c-1.65-2.29-3.11-4.71-4.62-7.09c-0.2-0.32-0.4-0.64-0.62-0.95
			c-0.21-0.3-0.54-0.55-0.93-0.5c-0.05,0.01-0.09,0.03-0.13,0.04c-0.23,0.04-0.45,0.16-0.62,0.3c-0.14,0.12-0.25,0.28-0.36,0.42
			c-0.1,0.12-0.2,0.25-0.31,0.37c-0.5,0.57-0.99,1.14-1.47,1.73c-0.19,0.23-0.39,0.46-0.61,0.68c-0.25,0.26-0.57,0.5-0.73,0.83
			c-0.07,0.14-0.1,0.3-0.11,0.47c-0.24,0.28-0.38,0.64-0.28,0.99c0.04,0.14,0.11,0.27,0.16,0.41c0.06,0.15,0.11,0.3,0.17,0.46
			c0.1,0.29,0.21,0.57,0.31,0.86c0.25,0.68,0.5,1.37,0.78,2.05c0.33,0.8,0.68,1.61,0.97,2.43c0.28,0.77,0.55,1.55,0.82,2.33
			c0.26,0.74,0.54,1.47,0.79,2.21c0.14,0.43,0.27,0.86,0.39,1.29c0.06,0.2,0.11,0.4,0.17,0.6c0.02,0.09,0.04,0.17,0.07,0.26
			c0.03,0.12,0.06,0.23,0.09,0.35c0.02,0.17-0.04,0.34-0.07,0.51c-0.04,0.21-0.08,0.43-0.12,0.64c-0.07,0.38-0.13,0.77-0.22,1.15
			c-0.18,0.83-0.46,1.62-0.71,2.43c-0.23,0.75-0.5,1.49-0.79,2.22c-0.07,0.17-0.14,0.35-0.21,0.52c-0.05,0.11-0.08,0.21-0.11,0.33
			c-0.05,0.05-0.1,0.1-0.15,0.15c-0.33,0.32-0.66,0.64-0.95,1c-0.08,0.11-0.17,0.22-0.25,0.34c-0.66-0.07-1.38,0.04-2.01-0.09
			c-1.69-0.2-3.37,0-5.06,0.1c-0.15,0.02-0.3,0.02-0.45,0.02c-0.07-0.13-0.16-0.26-0.28-0.37c-0.37-0.37-0.72-0.83-1.13-1.18
			c-0.04-0.27-0.15-0.57-0.29-0.81c-0.87-2.25-1.62-4.57-1.91-6.96c1.14-4.41,3.02-8.57,4.56-12.85c0.33-0.42,0.2-0.99-0.11-1.38
			c0-0.16-0.03-0.33-0.12-0.48c-0.34-0.58-0.95-0.96-1.34-1.51c-0.7-0.84-1.42-1.69-2.14-2.52c-0.14-0.12-0.33-0.23-0.52-0.28
			c-0.07-0.03-0.14-0.05-0.22-0.06c-0.39-0.05-0.72,0.2-0.93,0.5c-1.75,2.67-3.35,5.45-5.23,8.04c-3.1,4.17-6,8.48-8.65,12.95
			c-0.38,0.45-0.57,1.11-0.23,1.49c-0.11,0.27-0.1,0.6,0.14,0.87c1.13,1.78,2.09,3.65,3.07,5.52c1.05,2,2.4,3.93,2.74,6.2
			c0.2,1.03,0.25,2.13,0.55,3.14c0.01,0.08,0.02,0.17,0.03,0.25c0.02,0.12,0.04,0.25,0.05,0.37c0.05,0.32,0.1,0.63,0.16,0.95
			c0.11,0.58,0.25,1.15,0.4,1.72c0.59,2.23,1.48,4.4,2.64,6.39c0.52,0.89,1.09,1.73,1.71,2.55c0.86,1.12,1.82,2.19,2.91,3.09
			c1.12,0.93,2.34,1.75,3.69,2.32c0.53,0.22,1.08,0.4,1.64,0.54c0.68,0.18,1.39,0.25,2.1,0.26c0.17,0,0.32-0.01,0.45-0.07
			c0.14,0.05,0.29,0.07,0.45,0.07c0.71-0.01,1.41-0.08,2.1-0.26c0.56-0.14,1.11-0.32,1.64-0.54c1.35-0.56,2.56-1.39,3.69-2.32
			c1.09-0.9,2.05-1.96,2.91-3.09c0.62-0.82,1.19-1.66,1.71-2.55c1.17-1.98,2.05-4.16,2.64-6.39c0.15-0.57,0.29-1.14,0.4-1.72
			c0.06-0.31,0.11-0.63,0.16-0.95c0.02-0.12,0.04-0.25,0.05-0.37c0-0.01,0-0.02,0-0.03c0.03-0.11,0.06-0.22,0.08-0.34
			c0.07-0.32,0.13-0.63,0.19-0.95c0.12-0.69,0.2-1.38,0.31-2.07c0.07-0.4,0.14-0.79,0.25-1.18c0.12-0.41,0.29-0.81,0.47-1.21
			c0.28-0.63,0.61-1.24,0.93-1.85c0.35-0.66,0.72-1.31,1.08-1.97c0.35-0.63,0.67-1.28,1-1.92c0.64-1.23,1.34-2.42,2.07-3.6
			c0.1-0.16,0.2-0.33,0.21-0.52c0.01-0.13-0.02-0.25-0.07-0.37C89.87,97.47,89.95,97.33,89.97,97.19z M88.2,97.7
			c-0.04,0.11-0.09,0.21-0.16,0.3c-0.2,0.32-0.39,0.64-0.58,0.96c-0.73,1.26-1.41,2.54-2.08,3.84c-0.66,1.28-1.41,2.51-2.04,3.8
			c-0.35,0.72-0.68,1.46-0.88,2.23c-0.18,0.68-0.26,1.38-0.36,2.07c-0.08,0.57-0.17,1.13-0.29,1.69c-0.02,0.12-0.06,0.25-0.09,0.37
			c-0.03,0.11-0.05,0.22-0.07,0.34c-0.09,0.66-0.21,1.31-0.35,1.96c-0.39,1.79-1.02,3.53-1.8,5.19c-0.71,1.5-1.58,2.93-2.59,4.23
			c-1.43,1.85-3.22,3.52-5.34,4.55c-0.88,0.43-1.83,0.75-2.8,0.86c-0.27,0.03-0.54,0.05-0.8,0.05c-0.14-0.02-0.27,0-0.41,0.04
			c-0.02,0.01-0.05,0.02-0.07,0.03c-0.02-0.01-0.05-0.02-0.07-0.03c-0.13-0.04-0.27-0.05-0.41-0.04c-0.27,0-0.54-0.02-0.8-0.05
			c-0.97-0.11-1.93-0.43-2.8-0.86c-2.12-1.03-3.91-2.7-5.34-4.55c-1.02-1.3-1.89-2.73-2.59-4.23c-0.78-1.66-1.41-3.4-1.8-5.19
			c-0.14-0.65-0.26-1.3-0.35-1.96c-0.01-0.1-0.03-0.19-0.05-0.28c-0.07-0.71-0.42-1.58-0.4-2.12c-0.2-3-1.92-5.52-3.28-8.11
			c-1.02-1.75-1.8-3.79-3.08-5.34c0.87-1.39,1.72-2.81,2.6-4.2c3.5-5.69,7.79-10.85,11.16-16.63c0.03,0.04,0.06,0.06,0.09,0.1
			c0.94,0.9,1.64,2.19,2.67,3.01c-1.53,3.99-3.14,7.97-4.4,12.07c-0.11,0.7-0.59,1.44-0.34,2.15c0.56,2.45,1.14,4.95,2.14,7.29
			c0.06,0.21,0.16,0.41,0.28,0.6c0.03,0.34,0.26,0.71,0.64,0.94c0.46,0.31,0.73,0.86,1.11,1.25c0.02,0.4,0.26,0.78,0.73,0.82
			c0.18,0.01,0.34-0.02,0.5-0.12c0.3-0.22,0.78-0.07,1.14-0.15c2.12-0.18,4.38-0.23,6.44,0.15c0.61,0.39,1.2-0.14,1.23-0.71
			c0.04-0.05,0.07-0.1,0.11-0.15c0.05-0.08,0.11-0.16,0.18-0.24c0.25-0.3,0.54-0.57,0.81-0.84c0.11-0.11,0.23-0.21,0.34-0.32
			c0.11-0.08,0.2-0.19,0.25-0.32c0.05-0.11,0.07-0.22,0.06-0.34c0.1-0.18,0.18-0.37,0.26-0.56c0.25-0.64,0.51-1.29,0.72-1.94
			c0.2-0.61,0.39-1.21,0.58-1.82c0.21-0.67,0.38-1.34,0.5-2.03c0.05-0.3,0.11-0.6,0.16-0.9c0.03-0.14,0.04-0.31,0.09-0.45
			c0.03-0.05,0.06-0.11,0.09-0.16c0.03-0.07,0.05-0.15,0.07-0.23c0.06-0.3-0.07-0.62-0.14-0.9c-0.09-0.34-0.18-0.68-0.27-1.02
			c-0.36-1.31-0.85-2.58-1.3-3.86c-0.46-1.32-0.91-2.66-1.45-3.95c-0.25-0.6-0.5-1.2-0.73-1.81c-0.25-0.66-0.48-1.32-0.72-1.99
			c-0.05-0.15-0.11-0.31-0.16-0.47c0.18-0.18,0.37-0.36,0.54-0.55c0.48-0.54,0.94-1.11,1.41-1.66c0.23-0.27,0.46-0.53,0.7-0.8
			c0.03-0.04,0.06-0.07,0.09-0.11c0.72,1.12,1.42,2.26,2.13,3.38c0.45,0.71,0.92,1.41,1.38,2.12c0.51,0.79,1.06,1.55,1.61,2.32
			c1.07,1.5,2.16,2.98,3.23,4.48c0.22,0.32,0.45,0.63,0.67,0.95c0.27,0.38,0.52,0.78,0.78,1.17c0.48,0.72,0.92,1.48,1.38,2.21
			c0.53,0.85,1.05,1.7,1.57,2.54c0.27,0.43,0.54,0.85,0.79,1.29c0.06,0.1,0.11,0.21,0.18,0.31c-0.04,0.04-0.08,0.07-0.1,0.11
			C88.26,97.57,88.23,97.63,88.2,97.7z"/>
	</g>
	<path class="st4" d="M88.39,97.4c-0.04,0.04-0.07,0.08-0.1,0.12c-0.03,0.06-0.06,0.12-0.09,0.18c-0.04,0.11-0.09,0.21-0.16,0.3
		c-0.2,0.32-0.39,0.64-0.58,0.96c-0.73,1.26-1.41,2.54-2.08,3.84c-0.66,1.28-1.41,2.51-2.04,3.8c-0.35,0.72-0.68,1.46-0.88,2.23
		c-0.18,0.68-0.26,1.38-0.36,2.07c-0.08,0.57-0.17,1.13-0.29,1.69c-0.02,0.09-0.05,0.19-0.07,0.29c-0.05,0.14-0.07,0.28-0.09,0.43
		c-0.09,0.66-0.21,1.31-0.35,1.96c-0.39,1.79-1.02,3.53-1.8,5.19c-0.71,1.5-1.58,2.93-2.59,4.23c-1.43,1.85-3.22,3.52-5.34,4.55
		c-0.88,0.43-1.83,0.75-2.8,0.86c-0.27,0.03-0.54,0.05-0.8,0.05c-0.14-0.02-0.27,0-0.41,0.04c-0.02,0.01-0.05,0.02-0.07,0.03
		c-0.02-0.01-0.05-0.02-0.07-0.03c-0.13-0.04-0.27-0.05-0.41-0.04c-0.27,0-0.54-0.02-0.8-0.05c-0.97-0.11-1.93-0.43-2.8-0.86
		c-2.12-1.03-3.91-2.7-5.34-4.55c-1.02-1.3-1.89-2.73-2.59-4.23c-0.78-1.66-1.41-3.4-1.8-5.19c-0.14-0.65-0.26-1.3-0.35-1.96
		c-0.02-0.11-0.03-0.21-0.05-0.3c-0.07-0.7-0.42-1.57-0.39-2.11c-0.2-3-1.92-5.52-3.28-8.11c-1.02-1.75-1.79-3.79-3.07-5.34
		c0.87-1.39,1.72-2.8,2.59-4.2c3.5-5.7,7.8-10.86,11.17-16.64c0.03,0.04,0.05,0.07,0.08,0.11c0.94,0.9,1.64,2.2,2.67,3.02
		c-1.54,3.98-3.14,7.96-4.39,12.05c-0.11,0.7-0.59,1.45-0.34,2.15c0.55,2.45,1.14,4.95,2.14,7.29c0.06,0.21,0.15,0.42,0.27,0.6
		c0.03,0.34,0.27,0.71,0.64,0.95c0.46,0.3,0.73,0.86,1.11,1.25c0.02,0.4,0.27,0.79,0.73,0.82c0.18,0.01,0.34-0.02,0.5-0.12
		c0.3-0.22,0.78-0.07,1.14-0.15c2.12-0.18,4.38-0.23,6.44,0.15c0.61,0.39,1.21-0.14,1.24-0.72c0.04-0.05,0.07-0.09,0.11-0.14
		c0.05-0.08,0.11-0.16,0.18-0.24c0.25-0.3,0.54-0.57,0.81-0.84c0.11-0.11,0.23-0.21,0.34-0.32c0.11-0.08,0.2-0.19,0.25-0.32
		c0.05-0.1,0.07-0.21,0.07-0.32c0,0,0,0,0,0c0.11-0.18,0.17-0.39,0.25-0.59c0.25-0.64,0.51-1.29,0.72-1.94
		c0.2-0.61,0.39-1.21,0.58-1.82c0.21-0.67,0.38-1.34,0.5-2.03c0.05-0.3,0.11-0.6,0.16-0.9c0.03-0.14,0.04-0.31,0.09-0.45
		c0.03-0.05,0.06-0.11,0.09-0.16c0.03-0.07,0.05-0.15,0.07-0.23c0.06-0.3-0.07-0.62-0.14-0.9c-0.09-0.34-0.18-0.68-0.27-1.02
		c-0.36-1.31-0.85-2.58-1.3-3.86c-0.46-1.32-0.91-2.66-1.45-3.95c-0.25-0.6-0.5-1.2-0.73-1.81c-0.25-0.66-0.48-1.32-0.72-1.99
		c-0.05-0.15-0.1-0.31-0.16-0.46c0.18-0.18,0.37-0.36,0.54-0.55c0.48-0.54,0.94-1.11,1.41-1.66c0.23-0.27,0.46-0.53,0.7-0.8
		c0.03-0.04,0.06-0.07,0.09-0.11c0.72,1.12,1.42,2.26,2.13,3.39c0.45,0.71,0.92,1.41,1.38,2.12c0.51,0.79,1.06,1.55,1.61,2.32
		c1.07,1.5,2.16,2.98,3.23,4.48c0.22,0.32,0.45,0.63,0.67,0.95c0.27,0.38,0.52,0.78,0.78,1.17c0.48,0.72,0.92,1.48,1.38,2.21
		c0.53,0.85,1.05,1.7,1.57,2.54c0.27,0.43,0.54,0.85,0.79,1.29C88.28,97.18,88.33,97.29,88.39,97.4z"/>
</g>
</svg>
