<?xml version="1.0" encoding="utf-8"?>
<!-- Generator: Adobe Adobe Illustrator 24.2.0, SVG Export Plug-In . SVG Version: 6.00 Build 0)  -->
<svg version="1.1" xmlns="http://www.w3.org/2000/svg" xmlns:xlink="http://www.w3.org/1999/xlink" x="0px" y="0px"
	 viewBox="0 0 135 206.38" style="enable-background:new 0 0 135 206.38;" xml:space="preserve">
<style type="text/css">
	.st0{stroke:#000000;stroke-miterlimit:10;}
	.st1{fill:#818181;}
	.st2{fill:#F0F0F0;stroke:#000000;stroke-width:3;stroke-miterlimit:10;}
	.st3{fill:#F0F0F0;}
	.st4{fill:#CACACA;}
</style>
<g id="Vector_layer_13_">
	<path class="st0" d="M28.58,138.82c-0.38,0-0.76,0-1.14,0c-0.75,0.02-1.1-1.03-0.48-1.45c8.91-15.83,18.19-31.5,27.21-47.28
		c3.76-6.51,7.51-13.02,11.27-19.52c0.76-1.04,1.92-4.72,3.18-2.19c13.13,22.77,26.34,45.51,39.41,68.31
		c1.54,3.02-2.88,1.94-4.5,2.12c-5.57,0-11.14,0-16.71,0C67.41,138.82,48,138.82,28.58,138.82z M38.2,137.22
		c22.77,0.01,45.53-0.02,68.3,0.01c-12.91-22.45-25.9-44.86-38.83-67.29c-12.94,22.43-25.89,44.84-38.83,67.27
		C31.96,137.25,35.08,137.2,38.2,137.22z"/>
	<path class="st1" d="M106.5,137.22c-22.77-0.02-45.53,0-68.3-0.01c-3.12-0.02-6.24,0.03-9.36-0.02
		c12.95-22.43,25.89-44.84,38.83-67.27C80.6,92.37,93.59,114.78,106.5,137.22z"/>
</g>
<g id="Vector_layer_12_">
</g>
<g id="Vector_layer_11_">
</g>
<g id="Vector_layer_10_">
</g>
<g id="Vector_layer_9_">
</g>
<g id="Vector_layer_8_">
</g>
<g id="Vector_layer_7_">
</g>
</svg>
